<svg width="52" height="52" viewBox="0 0 52 52" fill="none" xmlns="http://www.w3.org/2000/svg">
<path d="M46 26C46 31.3043 43.8929 36.3914 40.1421 40.1421C36.3914 43.8929 31.3043 46 26 46C20.6957 46 15.6086 43.8929 11.8579 40.1421C8.10714 36.3914 6 31.3043 6 26C6 20.6957 8.10714 15.6086 11.8579 11.8579C15.6086 8.10714 20.6957 6 26 6C31.3043 6 36.3914 8.10714 40.1421 11.8579C43.8929 15.6086 46 20.6957 46 26ZM36.075 18.425C35.8964 18.247 35.6838 18.1069 35.4498 18.013C35.2159 17.9191 34.9654 17.8734 34.7133 17.8785C34.4613 17.8837 34.2128 17.9396 33.9829 18.0429C33.7529 18.1463 33.5462 18.2949 33.375 18.48L24.6925 29.5425L19.46 24.3075C19.1046 23.9763 18.6344 23.796 18.1487 23.8046C17.6629 23.8131 17.1995 24.0099 16.8559 24.3534C16.5124 24.697 16.3156 25.1604 16.3071 25.6462C16.2985 26.1319 16.4788 26.6021 16.81 26.9575L23.425 33.575C23.6032 33.7529 23.8154 33.893 24.049 33.9871C24.2825 34.0812 24.5326 34.1273 24.7844 34.1226C25.0361 34.118 25.2843 34.0627 25.5142 33.96C25.7441 33.8573 25.951 33.7094 26.1225 33.525L36.1025 21.05C36.4427 20.6962 36.6307 20.2232 36.626 19.7324C36.6213 19.2416 36.4244 18.7722 36.0775 18.425H36.075Z" fill="#175779"/>
</svg>
