<svg width="40" height="40" viewBox="0 0 40 40" fill="none" xmlns="http://www.w3.org/2000/svg">
<g clip-path="url(#clip0_38_31)">
<path d="M0.0859375 36.5C0.257812 35.5156 0.859375 34.8125 1.54687 34.125C7.30469 28.3906 13.0469 22.6406 18.7969 16.8906C18.9062 16.7812 19.0391 16.7109 19.1641 16.6172C19.1406 16.5781 19.1172 16.5391 19.0859 16.5C18.3594 16.2734 17.625 16.0625 16.9062 15.8203C15.5156 15.3438 14.8672 13.8047 15.5547 12.5391C15.7578 12.1641 16.0937 11.8359 16.4375 11.5781C17.8438 10.5312 19.2734 9.52344 20.7031 8.50781C20.9062 8.36719 20.9844 8.21875 20.9844 7.96875C20.9766 6.30469 20.9766 4.64062 20.9766 2.98438C20.9766 1.25781 21.3359 0.71875 22.9297 0.0859375C23.1875 0.0859375 23.4531 0.0859375 23.7109 0.0859375C24.2344 0.382812 24.7969 0.640625 25.2812 0.984375C26.5781 1.91406 27.8516 2.88281 29.125 3.85156C29.3359 4.01562 29.5078 4.03125 29.7578 3.94531C31.4453 3.35938 33.1406 2.78125 34.8438 2.21875C36.3594 1.71094 37.7969 2.54688 38.0156 4.08594C38.0703 4.47656 37.9844 4.92188 37.8594 5.30469C37.3125 6.99219 36.7344 8.67969 36.1484 10.3516C36.0625 10.6016 36.0938 10.7734 36.25 10.9844C37.3359 12.4219 38.4219 13.8672 39.4922 15.3281C40.4844 16.6875 39.9453 18.4844 38.4141 18.9922C38.125 19.0859 37.8047 19.1172 37.5 19.125C35.7031 19.1406 33.9141 19.1406 32.1172 19.125C31.8672 19.125 31.7188 19.2031 31.5781 19.4062C30.5391 20.8672 29.5 22.3281 28.4453 23.7734C27.5078 25.0547 25.7812 25.1953 24.7812 24.0547C24.5078 23.7422 24.3438 23.3281 24.1953 22.9297C23.9609 22.3047 23.7891 21.6562 23.5859 21.0156C23.5391 20.9844 23.4922 20.9609 23.4453 20.9297C23.3594 21.0625 23.2969 21.2109 23.1875 21.3203C17.3281 27.1797 11.4609 33.0469 5.58594 38.9219C4.64844 39.8594 3.55469 40.2578 2.25781 39.8516C1.25 39.5312 0.585938 38.8359 0.25 37.8359C0.1875 37.6562 0.140625 37.4688 0.0859375 37.2812C0.0859375 37.0234 0.0859375 36.7656 0.0859375 36.5ZM23.4609 1.64844C22.8672 1.64062 22.5469 2 22.5469 2.55469C22.5469 4.50781 22.5312 6.45312 22.5547 8.40625C22.5625 8.91406 22.3984 9.28125 21.9609 9.53906C21.7031 9.6875 21.4766 9.88281 21.2344 10.0625C19.9297 11 18.6172 11.9453 17.3125 12.8828C17.0156 13.0937 16.8125 13.3516 16.8828 13.7344C16.9453 14.1094 17.2109 14.3047 17.5625 14.3984C17.6094 14.4141 17.6641 14.4297 17.7109 14.4453C19.5156 15.0078 21.3203 15.5859 23.1406 16.1328C23.6016 16.2734 23.8516 16.5234 23.9922 16.9844C24.5625 18.875 25.1641 20.75 25.75 22.6328C25.8516 22.9609 26.0469 23.1797 26.3906 23.2422C26.7344 23.3047 26.9922 23.1406 27.1953 22.875C27.25 22.8047 27.3047 22.7266 27.3516 22.6562C28.4297 21.1562 29.5156 19.6719 30.5781 18.1562C30.8828 17.7266 31.2344 17.5547 31.75 17.5625C33.7031 17.5859 35.6484 17.5703 37.6016 17.5703C37.9453 17.5703 38.2109 17.4531 38.375 17.1484C38.5391 16.8359 38.4766 16.5469 38.2812 16.2734C38.2344 16.2109 38.1875 16.1484 38.1406 16.0859C37.0078 14.5625 35.8828 13.0391 34.7344 11.5312C34.4375 11.1406 34.3828 10.7734 34.5469 10.3047C35.1875 8.49219 35.7891 6.67188 36.3984 4.85156C36.5703 4.34375 36.5078 4.03125 36.2031 3.78906C35.9062 3.5625 35.6016 3.61719 35.2812 3.72656C33.4609 4.34375 31.6406 4.94531 29.8281 5.58594C29.3359 5.75781 28.9688 5.67969 28.5703 5.375C27.0547 4.21875 25.5156 3.07812 23.9844 1.94531C23.7812 1.79688 23.5625 1.70312 23.4609 1.64844ZM3.13281 38.4531C3.71875 38.4531 4.10938 38.1953 4.46875 37.8438C10.5781 31.7344 16.6875 25.6172 22.8047 19.5156C23 19.3203 23.0469 19.1562 22.9531 18.9062C22.7891 18.4688 22.7656 17.9141 22.4766 17.6172C22.1953 17.3281 21.6406 17.3203 21.2188 17.1562C20.9453 17.0469 20.7812 17.1172 20.5781 17.3203C14.4922 23.4219 8.39844 29.5078 2.3125 35.6016C2.19531 35.7188 2.07031 35.8438 1.97656 35.9766C1.60937 36.4844 1.55469 37.0312 1.84375 37.5938C2.10938 38.1484 2.58594 38.4219 3.13281 38.4531Z" fill="#175779"/>
<path d="M31.2031 29.0939C30.9297 29.0939 30.6953 29.1017 30.4688 29.0939C29.9844 29.0704 29.6563 28.7579 29.6563 28.3282C29.6485 27.8986 29.9766 27.5782 30.461 27.547C30.6953 27.5314 30.9219 27.547 31.211 27.547C31.211 27.3048 31.2031 27.0939 31.211 26.8751C31.2266 26.3439 31.5391 25.9845 31.9922 25.9923C32.4453 25.9923 32.75 26.3439 32.7656 26.8829C32.7735 27.0861 32.7656 27.297 32.7656 27.5392C33.0235 27.5392 33.2578 27.5314 33.4844 27.5392C33.9844 27.5626 34.3281 27.8986 34.3203 28.3361C34.3125 28.7657 33.9766 29.0704 33.4922 29.0939C33.2735 29.1017 33.0547 29.0939 32.7656 29.0939C32.7656 29.3282 32.7735 29.5548 32.7656 29.7814C32.7422 30.297 32.4453 30.6329 32 30.6486C31.5469 30.6564 31.2266 30.3048 31.211 29.7736C31.1953 29.5704 31.2031 29.3595 31.2031 29.0939Z" fill="#175779"/>
<path d="M35.0859 22.8517C34.6719 22.8439 34.3203 22.4845 34.3203 22.0704C34.3281 21.6564 34.6875 21.297 35.1016 21.3048C35.5078 21.3126 35.875 21.6798 35.8672 22.0861C35.8672 22.4923 35.5 22.8517 35.0859 22.8517Z" fill="#175779"/>
<path d="M14.0312 4.14065C14.0937 2.93753 14.2656 2.59378 14.8125 2.58596C15.3594 2.57034 15.539 2.90628 15.6328 4.14065C15.8515 4.14065 16.0859 4.13284 16.3125 4.14065C16.8203 4.16409 17.164 4.47659 17.164 4.91409C17.164 5.35159 16.8203 5.6719 16.3203 5.69534C16.1015 5.70315 15.8828 5.69534 15.6172 5.69534C15.6172 5.94534 15.625 6.17971 15.6172 6.40628C15.5937 6.91409 15.2734 7.25003 14.8359 7.25003C14.3984 7.25003 14.0859 6.90628 14.0625 6.39846C14.0547 6.17971 14.0625 5.96096 14.0625 5.69534C13.789 5.69534 13.5469 5.70315 13.3047 5.69534C12.8437 5.6719 12.5234 5.3594 12.5078 4.94534C12.4922 4.52346 12.8203 4.17971 13.2969 4.14065C13.5156 4.12503 13.7656 4.14065 14.0312 4.14065Z" fill="#175779"/>
<path d="M27.2656 6.60156C27.8515 6.60156 29.3515 7.71094 29.4609 8.10938C29.5469 8.40625 29.4765 8.67187 29.2422 8.88281C29 9.10937 28.6875 9.1875 28.4219 9.01562C27.8828 8.66406 27.3672 8.27344 26.8672 7.85937C26.6172 7.65625 26.5781 7.3125 26.7578 7.04687C26.9062 6.82812 27.1562 6.6875 27.2656 6.60156Z" fill="#175779"/>
<path d="M25.7422 5.43763C25.75 5.85169 25.3984 6.21888 24.9844 6.22669C24.5859 6.23451 24.2031 5.86732 24.1953 5.46107C24.1875 5.05482 24.5391 4.68763 24.9531 4.67982C25.375 4.67201 25.7344 5.01576 25.7422 5.43763Z" fill="#175779"/>
</g>
<defs>
<clipPath id="clip0_38_31">
<rect width="40" height="40" fill="white"/>
</clipPath>
</defs>
</svg>
