<svg width="40" height="40" viewBox="0 0 40 40" fill="none" xmlns="http://www.w3.org/2000/svg">
<g clip-path="url(#clip0_38_38)">
<path d="M18.6953 38.2029C13.3203 38.2029 7.94531 38.2029 2.5625 38.2029C0.90625 38.2029 0 37.2889 0 35.617C0 27.7889 0 19.9686 0 12.1404C0 10.4686 0.898438 9.57013 2.57812 9.57013C9.90625 9.57013 17.2266 9.57013 24.5547 9.57013C24.6641 9.57013 24.7656 9.57013 24.875 9.57013C25.1797 9.56232 25.3828 9.70294 25.3906 10.0154C25.3984 10.3514 25.1797 10.492 24.8516 10.4842C24.7188 10.4842 24.5781 10.4842 24.4453 10.4842C17.1484 10.4842 9.85938 10.4842 2.5625 10.4842C1.42969 10.4842 0.929688 10.9842 0.929688 12.1092C0.929688 19.9608 0.929688 27.8201 0.929688 35.6717C0.929688 36.7654 1.44531 37.2889 2.53906 37.2889C13.3359 37.2889 24.1328 37.2889 34.9375 37.2889C36.0234 37.2889 36.5312 36.7733 36.5312 35.6639C36.5312 29.367 36.5312 23.0701 36.5312 16.7654C36.5312 16.5858 36.5 16.3748 36.5859 16.2342C36.6719 16.0936 36.875 15.9295 37.0156 15.9373C37.1562 15.9451 37.3281 16.1248 37.4141 16.2733C37.4844 16.3904 37.4453 16.5701 37.4453 16.7186C37.4453 23.0154 37.4453 29.3123 37.4453 35.617C37.4453 37.2967 36.5469 38.1951 34.875 38.1951C29.4844 38.2029 24.0938 38.2029 18.6953 38.2029Z" fill="#175779"/>
<path d="M26.625 8.49219C26.625 4.8125 29.6406 1.79688 33.3125 1.79688C36.9922 1.79688 40 4.80469 40.0078 8.48438C40.0156 12.1562 36.9922 15.1797 33.3203 15.1797C29.6406 15.1797 26.625 12.1641 26.625 8.49219ZM39.0781 8.46094C39.0625 5.30469 36.4688 2.71094 33.3438 2.71094C30.1328 2.71094 27.5156 5.33594 27.5391 8.53125C27.5625 11.6875 30.2109 14.2891 33.3516 14.2578C36.5234 14.2266 39.0938 11.625 39.0781 8.46094Z" fill="#175779"/>
<path d="M16.1484 22.0781C17.625 22.0781 19.1094 22.0781 20.5859 22.0781C21.8047 22.0781 22.5547 22.8203 22.5625 24.0547C22.5703 25.9375 22.5703 27.8281 22.5625 29.7109C22.5547 30.9375 21.8047 31.6875 20.5859 31.6875C17.6094 31.6875 14.6406 31.6875 11.6641 31.6875C10.4531 31.6875 9.67969 30.9219 9.67188 29.7109C9.66406 27.8281 9.66406 25.9375 9.67188 24.0547C9.67969 22.8437 10.4453 22.0859 11.6641 22.0859C13.1641 22.0781 14.6562 22.0781 16.1484 22.0781ZM16.1016 22.9922C14.6484 22.9922 13.2031 22.9922 11.75 22.9922C10.9297 22.9922 10.5859 23.3359 10.5859 24.1484C10.5859 25.9766 10.5859 27.8047 10.5859 29.6328C10.5859 30.4375 10.9375 30.7812 11.75 30.7812C14.6641 30.7812 17.5781 30.7812 20.4922 30.7812C21.3203 30.7812 21.6406 30.4609 21.6406 29.625C21.6406 27.7969 21.6406 25.9687 21.6406 24.1406C21.6406 23.3125 21.3203 22.9922 20.4844 22.9922C19.0312 22.9922 17.5703 22.9922 16.1016 22.9922Z" fill="#175779"/>
<path d="M18.5468 17.8203C13.5312 17.8203 8.5156 17.8203 3.50779 17.8203C3.3906 17.8203 3.2656 17.8203 3.14841 17.8203C2.85154 17.8125 2.6406 17.6719 2.63279 17.3672C2.62497 17.0625 2.8281 16.9062 3.13279 16.9062C3.24997 16.9062 3.37497 16.9062 3.49216 16.9062C13.5625 16.9062 23.6406 16.9062 33.7109 16.9062C34.3515 16.9062 34.6172 17.0391 34.5703 17.375C34.4922 17.9219 34.0469 17.8203 33.6875 17.8203C28.6406 17.8203 23.5937 17.8203 18.5468 17.8203Z" fill="#175779"/>
<path d="M26.8203 29.9924C26.8203 27.8361 26.8203 25.7736 26.8203 23.6174C26.4218 23.8283 26.0703 24.0158 25.7187 24.2033C25.2265 24.4689 24.7343 24.7346 24.2499 25.0002C23.9687 25.1564 23.6874 25.1877 23.5156 24.8517C23.3515 24.5314 23.5468 24.3439 23.8124 24.1955C24.7031 23.7111 25.5859 23.2267 26.4765 22.7502C27.164 22.3908 27.7343 22.7111 27.7421 23.5002C27.7656 25.6721 27.7734 27.8439 27.7734 30.0236C27.7734 30.8986 27.1718 31.2267 26.3984 30.8127C25.5781 30.3674 24.7578 29.9221 23.9296 29.4846C23.6249 29.3205 23.289 29.1564 23.5234 28.7346C23.7421 28.3517 24.0546 28.508 24.3437 28.6721C25.1484 29.1017 25.9609 29.5314 26.8203 29.9924Z" fill="#175779"/>
<path d="M14.2109 12.6251C14.9297 12.6173 15.5234 13.1876 15.5391 13.8985C15.5625 14.6173 14.9531 15.2345 14.2344 15.2423C13.4922 15.2501 12.9219 14.672 12.9219 13.922C12.9219 13.1954 13.4766 12.6329 14.2109 12.6251ZM14.7656 13.9454C14.5313 13.7657 14.3828 13.5548 14.2578 13.5782C14.1016 13.6016 13.9766 13.797 13.8359 13.922C13.9688 14.0548 14.0859 14.2657 14.2422 14.2891C14.3594 14.3126 14.5234 14.1173 14.7656 13.9454Z" fill="#175779"/>
<path d="M3.86722 13.8593C3.89847 13.1249 4.51566 12.5858 5.27347 12.6327C5.96097 12.6718 6.51566 13.2733 6.49222 13.9608C6.46879 14.6874 5.84379 15.2812 5.12504 15.2499C4.39066 15.203 3.83597 14.5937 3.86722 13.8593ZM5.14847 14.4921C5.3516 14.2343 5.5391 14.0937 5.54691 13.9374C5.55472 13.8124 5.32816 13.5702 5.21879 13.578C5.06254 13.5937 4.83597 13.7655 4.80472 13.9062C4.78129 14.039 4.9766 14.2108 5.14847 14.4921Z" fill="#175779"/>
<path d="M8.39062 13.9219C8.39062 13.2031 8.96094 12.625 9.67969 12.625C10.4141 12.625 11.0234 13.2266 11.0078 13.9453C11 14.6719 10.3828 15.2578 9.65625 15.2422C8.94531 15.2266 8.39062 14.6484 8.39062 13.9219ZM10.2422 13.9375C10.0078 13.7578 9.85156 13.5547 9.72656 13.5781C9.57031 13.6016 9.44531 13.8047 9.30469 13.9297C9.4375 14.0625 9.5625 14.2656 9.71875 14.2891C9.84375 14.3125 10 14.1094 10.2422 13.9375Z" fill="#175779"/>
<path d="M37.9453 6.16388C37.9219 6.22638 37.875 6.35919 37.8125 6.47638C36.8516 8.44513 35.8984 10.4061 34.9297 12.3748C34.6719 12.8983 34.4297 12.9529 33.9844 12.5858C33.4062 12.1014 32.8203 11.617 32.2578 11.117C32.0391 10.9217 31.8828 10.9139 31.6406 11.0936C30.9609 11.5936 30.6875 11.5076 30.5781 10.6561C30.4375 9.58575 29.9922 8.76544 29.0703 8.18732C28.8125 8.02325 28.4453 7.84357 28.5469 7.42169C28.6562 6.99982 29.0547 7.0545 29.3672 7.00763C32 6.5545 34.6328 6.10919 37.2656 5.66388C37.7187 5.58575 37.9609 5.75763 37.9453 6.16388ZM30.0937 7.8045C30.5 8.23419 30.8125 8.53107 31.4375 8.32794C32.5547 7.96075 33.6953 7.68732 34.8359 7.40607C35.0156 7.35919 35.3594 7.46857 35.4297 7.60919C35.5 7.74982 35.3516 8.03107 35.2578 8.21857C35.2031 8.32794 35.0547 8.39044 34.9531 8.47638C34.2187 9.07794 33.4922 9.67169 32.7266 10.2967C33.2656 10.7576 33.7656 11.1795 34.2891 11.6248C35.1016 9.95294 35.8906 8.35138 36.7031 6.6795C34.4766 7.06232 32.3281 7.42169 30.0937 7.8045ZM31.375 10.2029C31.9531 9.73419 32.4531 9.33575 32.9531 8.9295C32.9375 8.90607 32.9297 8.88263 32.9141 8.85919C32.3594 9.00763 31.8047 9.16388 31.2187 9.32013C31.2656 9.60138 31.3125 9.84357 31.375 10.2029Z" fill="#175779"/>
<path d="M15.4765 24.4141C15.5703 24.4609 15.7109 24.5078 15.8281 24.5937C16.6797 25.1875 17.539 25.7891 18.3828 26.3906C18.875 26.7422 18.875 27.0234 18.3828 27.3672C17.5312 27.9687 16.6875 28.5781 15.8203 29.1563C15.6562 29.2656 15.375 29.3281 15.2109 29.2578C15.0781 29.2031 14.9687 28.9219 14.9687 28.7344C14.9453 27.5 14.9609 26.2578 14.9609 25.0234C14.9609 24.7109 15.0469 24.4609 15.4765 24.4141ZM15.9062 28C16.4687 27.6016 16.9531 27.2578 17.4922 26.8828C16.9453 26.5 16.4531 26.1562 15.9062 25.7734C15.9062 26.5469 15.9062 27.2266 15.9062 28Z" fill="#175779"/>
</g>
<defs>
<clipPath id="clip0_38_38">
<rect width="40" height="40" fill="white"/>
</clipPath>
</defs>
</svg>
