<svg width="70" height="26" viewBox="0 0 70 26" fill="none" xmlns="http://www.w3.org/2000/svg">
<g clip-path="url(#clip0_3_7)">
<path d="M70 0.261902H0V25.5H70V0.261902Z" fill="black"/>
<g clip-path="url(#clip1_3_7)">
<path d="M7.30421 10.9945V10.3745C7.07949 10.3181 6.85478 10.3181 6.63007 10.3181C3.93353 10.3181 1.74258 12.5165 1.74258 15.2222C1.74258 16.8006 2.52908 18.3225 3.82117 19.2244C2.9785 18.3225 2.52908 17.1388 2.52908 15.8987C2.52908 13.2493 4.66384 11.1073 7.30421 10.9945Z" fill="#25F4EE"/>
<path d="M7.47275 18.1534C8.65249 18.1534 9.66369 17.1951 9.71987 16.0114V5.30125H11.6861C11.6299 5.07577 11.6299 4.85029 11.6299 4.62482H8.98955V15.3349C8.93338 16.5187 7.97835 17.477 6.74243 17.477C6.40537 17.477 6.01212 17.3642 5.73123 17.1951C6.0683 17.8152 6.74243 18.1534 7.47275 18.1534ZM15.2815 8.96523V8.34517C14.5512 8.34517 13.877 8.1197 13.2591 7.72511C13.7647 8.34517 14.495 8.79613 15.2815 8.96523Z" fill="#25F4EE"/>
<path d="M13.2591 7.72514C12.6973 7.04871 12.3602 6.20317 12.3602 5.30127H11.6299C11.7984 6.31591 12.4164 7.21782 13.2591 7.72514ZM6.68624 13.0238C5.45032 13.0238 4.43912 14.0385 4.43912 15.2786C4.43912 16.1241 4.94472 16.9133 5.61886 17.2515C5.33797 16.8569 5.22561 16.406 5.22561 15.8987C5.22561 14.6585 6.23681 13.6439 7.47273 13.6439C7.69744 13.6439 7.92215 13.7003 8.14686 13.7566V11.0509C7.86598 11.0509 7.64126 10.9945 7.47273 10.9945C7.41655 10.9945 7.41655 10.9945 7.36037 10.9945V13.0802C7.13566 13.0238 6.91095 13.0238 6.68624 13.0238Z" fill="#FE2C55"/>
<path d="M15.2815 8.96521V11.0509C13.9332 11.0509 12.6411 10.6563 11.5737 9.86711V15.2785C11.5737 17.9843 9.38279 20.1827 6.68625 20.1827C5.67505 20.1827 4.72002 19.8444 3.87735 19.2807C4.7762 20.2954 6.12447 20.8591 7.47274 20.8591C10.1693 20.8591 12.3602 18.6607 12.3602 15.955V10.4872C13.4276 11.2763 14.7197 11.6709 16.068 11.6709V9.02158C15.7871 9.02158 15.5062 9.02158 15.2815 8.96521Z" fill="#FE2C55"/>
<path d="M11.5737 15.2786V9.86713C12.6411 10.6563 13.9332 11.0509 15.2815 11.0509V8.96522C14.495 8.79612 13.7647 8.40153 13.2591 7.78147C12.4164 7.21778 11.7985 6.37225 11.6299 5.3576H9.66369V16.0677C9.60751 17.2515 8.65249 18.2097 7.41657 18.2097C6.68626 18.2097 6.01212 17.8715 5.61888 17.2515C4.88856 16.8569 4.43914 16.1241 4.43914 15.2786C4.43914 14.0384 5.45034 13.0238 6.68626 13.0238C6.91097 13.0238 7.13568 13.0802 7.36039 13.1365V11.0509C4.72003 11.1072 2.58527 13.3056 2.58527 15.955C2.58527 17.2515 3.09087 18.4352 3.87736 19.2808C4.72003 19.8445 5.67505 20.1827 6.68626 20.1827C9.3828 20.1827 11.5737 17.9843 11.5737 15.2786ZM18.6522 8.96522H26.9665L26.18 11.3327H24.0453V20.1263H21.3487V11.3327H18.6522V8.96522ZM40.5616 8.96522H49.0444L48.258 11.3327H45.8985V20.1263H43.2019V11.3327H40.5054L40.5616 8.96522ZM27.4721 12.5165H30.1125V20.1827H27.4721V12.5165ZM31.1799 8.90886H33.8202V14.1512L36.4606 11.5582H39.6066L36.292 14.7712L40.056 20.1827H37.1347L34.6629 16.4623L33.8764 17.2515V20.1827H31.236L31.1799 8.90886ZM59.3812 8.90886H62.0216V14.1512L64.6619 11.5582H67.8079L64.4934 14.8276L68.2011 20.1827H65.2799L62.8081 16.4623L62.0216 17.2515V20.1827H59.3812V8.90886ZM28.8204 11.6709C29.5507 11.6709 30.1686 11.0509 30.1686 10.3181C30.1686 9.58528 29.5507 8.96522 28.8204 8.96522C28.0901 8.96522 27.4721 9.58528 27.4721 10.3181C27.4721 11.0509 28.0339 11.6709 28.8204 11.6709Z" fill="white"/>
<path d="M48.7074 15.5604C48.7074 13.1929 50.5612 11.1636 52.9207 10.9945C52.8084 10.9945 52.6398 10.9945 52.5275 10.9945C49.9995 10.9945 47.9771 13.0238 47.9771 15.5604C47.9771 18.097 49.9995 20.1263 52.5275 20.1263C52.6398 20.1263 52.8084 20.1263 52.9207 20.1263C50.5612 19.9572 48.7074 17.9843 48.7074 15.5604Z" fill="#25F4EE"/>
<path d="M53.9319 10.9945C53.8196 10.9945 53.6511 10.9945 53.5387 10.9945C55.8982 11.1636 57.752 13.1929 57.752 15.5604C57.752 17.9279 55.9543 19.9572 53.5387 20.1263C53.6511 20.1263 53.8196 20.1263 53.9319 20.1263C56.46 20.1263 58.4824 18.097 58.4824 15.5604C58.4824 13.0238 56.46 10.9945 53.9319 10.9945Z" fill="#FE2C55"/>
<path d="M53.2016 17.8152C51.9657 17.8152 51.0107 16.8005 51.0107 15.6168C51.0107 14.3766 52.0219 13.4184 53.2016 13.4184C54.3814 13.4184 55.3926 14.433 55.3926 15.6168C55.4488 16.8005 54.4376 17.8152 53.2016 17.8152ZM53.2016 10.9945C50.6736 10.9945 48.6512 13.0238 48.6512 15.5604C48.6512 18.097 50.6736 20.1263 53.2016 20.1263C55.7296 20.1263 57.7521 18.097 57.7521 15.5604C57.7521 13.0238 55.7296 10.9945 53.2016 10.9945Z" fill="white"/>
</g>
</g>
<defs>
<clipPath id="clip0_3_7">
<rect y="0.5" width="70" height="25" rx="5" fill="white"/>
</clipPath>
<clipPath id="clip1_3_7">
<rect width="66.4585" height="16.1779" fill="white" transform="translate(1.79877 4.62482)"/>
</clipPath>
</defs>
</svg>
