<svg width="34" height="34" viewBox="0 0 34 34" fill="none" xmlns="http://www.w3.org/2000/svg">
<path d="M22.6666 29.75V26.9167C22.6666 25.4138 22.0696 23.9724 21.0069 22.9097C19.9442 21.847 18.5029 21.25 17 21.25H8.49998C6.99709 21.25 5.55575 21.847 4.49304 22.9097C3.43034 23.9724 2.83331 25.4138 2.83331 26.9167V29.75M22.6666 4.43133C23.8818 4.74636 24.958 5.45596 25.7262 6.44876C26.4944 7.44155 26.9113 8.66134 26.9113 9.91667C26.9113 11.172 26.4944 12.3918 25.7262 13.3846C24.958 14.3774 23.8818 15.087 22.6666 15.402M31.1666 29.75V26.9167C31.1657 25.6611 30.7478 24.4414 29.9786 23.4491C29.2093 22.4568 28.1323 21.7481 26.9166 21.4342M18.4166 9.91667C18.4166 13.0463 15.8796 15.5833 12.75 15.5833C9.62037 15.5833 7.08331 13.0463 7.08331 9.91667C7.08331 6.78705 9.62037 4.25 12.75 4.25C15.8796 4.25 18.4166 6.78705 18.4166 9.91667Z" stroke="black" stroke-width="2" stroke-linecap="round" stroke-linejoin="round"/>
</svg>
