<svg width="20" height="20" viewBox="0 0 20 20" fill="none" xmlns="http://www.w3.org/2000/svg">
<g clip-path="url(#clip0_42_228)">
<path d="M11.5267 13.8065C11.6988 13.8855 11.8927 13.9036 12.0764 13.8577C12.2601 13.8118 12.4228 13.7047 12.5375 13.554L12.8333 13.1665C12.9886 12.9595 13.1899 12.7915 13.4213 12.6758C13.6527 12.5601 13.9079 12.4998 14.1667 12.4998H16.6667C17.1087 12.4998 17.5326 12.6754 17.8452 12.988C18.1577 13.3006 18.3333 13.7245 18.3333 14.1665V16.6665C18.3333 17.1085 18.1577 17.5325 17.8452 17.845C17.5326 18.1576 17.1087 18.3332 16.6667 18.3332C12.6884 18.3332 8.8731 16.7528 6.06005 13.9398C3.24701 11.1267 1.66666 7.31142 1.66666 3.33317C1.66666 2.89114 1.84225 2.46722 2.15481 2.15466C2.46737 1.8421 2.8913 1.6665 3.33332 1.6665H5.83332C6.27535 1.6665 6.69927 1.8421 7.01183 2.15466C7.32439 2.46722 7.49999 2.89114 7.49999 3.33317V5.83317C7.49999 6.09191 7.43975 6.3471 7.32404 6.57853C7.20832 6.80995 7.04032 7.01126 6.83332 7.1665L6.44332 7.459C6.29034 7.57582 6.18251 7.74199 6.13815 7.9293C6.09379 8.1166 6.11564 8.31348 6.19999 8.4865C7.33889 10.7997 9.21201 12.6705 11.5267 13.8065Z" stroke="#175779" stroke-width="2" stroke-linecap="round" stroke-linejoin="round"/>
</g>
<defs>
<clipPath id="clip0_42_228">
<rect width="20" height="20" fill="white"/>
</clipPath>
</defs>
</svg>
