<svg width="20" height="20" viewBox="0 0 20 20" fill="none" xmlns="http://www.w3.org/2000/svg">
<path d="M16.6667 8.33317C16.6667 12.494 12.0508 16.8273 10.5008 18.1657C10.3564 18.2743 10.1807 18.333 10 18.333C9.81934 18.333 9.64357 18.2743 9.49918 18.1657C7.94918 16.8273 3.33334 12.494 3.33334 8.33317C3.33334 6.56506 4.03572 4.86937 5.28596 3.61913C6.53621 2.36888 8.2319 1.6665 10 1.6665C11.7681 1.6665 13.4638 2.36888 14.7141 3.61913C15.9643 4.86937 16.6667 6.56506 16.6667 8.33317Z" stroke="#175779" stroke-width="2" stroke-linecap="round" stroke-linejoin="round"/>
<path d="M10 10.8332C11.3807 10.8332 12.5 9.71388 12.5 8.33317C12.5 6.95246 11.3807 5.83317 10 5.83317C8.6193 5.83317 7.50001 6.95246 7.50001 8.33317C7.50001 9.71388 8.6193 10.8332 10 10.8332Z" stroke="#175779" stroke-width="2" stroke-linecap="round" stroke-linejoin="round"/>
</svg>
