<svg width="40" height="40" viewBox="0 0 40 40" fill="none" xmlns="http://www.w3.org/2000/svg">
<rect width="40" height="40" rx="20" fill="#EEDAC1"/>
<path d="M24.125 15.875H24.1325M16.25 12.5H23.75C25.8211 12.5 27.5 14.1789 27.5 16.25V23.75C27.5 25.8211 25.8211 27.5 23.75 27.5H16.25C14.1789 27.5 12.5 25.8211 12.5 23.75V16.25C12.5 14.1789 14.1789 12.5 16.25 12.5ZM23 19.5275C23.0926 20.1517 22.9859 20.7892 22.6953 21.3493C22.4047 21.9094 21.9449 22.3636 21.3812 22.6473C20.8176 22.931 20.1788 23.0297 19.5558 22.9294C18.9328 22.8292 18.3573 22.5351 17.9111 22.0889C17.4649 21.6427 17.1708 21.0672 17.0706 20.4442C16.9703 19.8212 17.069 19.1824 17.3527 18.6188C17.6364 18.0551 18.0906 17.5953 18.6507 17.3047C19.2108 17.0141 19.8483 16.9074 20.4725 17C21.1092 17.0944 21.6986 17.3911 22.1538 17.8462C22.6089 18.3014 22.9056 18.8908 23 19.5275Z" stroke="#175779" stroke-width="2" stroke-linecap="round" stroke-linejoin="round"/>
</svg>
