<svg width="50" height="48" viewBox="0 0 50 48" fill="none" xmlns="http://www.w3.org/2000/svg">
<rect width="50" height="48" rx="24" fill="#EEDAC1"/>
<path d="M29 33V31C29 29.9391 28.5786 28.9217 27.8284 28.1716C27.0783 27.4214 26.0609 27 25 27H19C17.9391 27 16.9217 27.4214 16.1716 28.1716C15.4214 28.9217 15 29.9391 15 31V33M29 15.128C29.8578 15.3504 30.6174 15.8513 31.1597 16.5521C31.702 17.2529 31.9962 18.1139 31.9962 19C31.9962 19.8861 31.702 20.7471 31.1597 21.4479C30.6174 22.1487 29.8578 22.6496 29 22.872M35 33V31C34.9993 30.1137 34.7044 29.2528 34.1614 28.5523C33.6184 27.8519 32.8581 27.3516 32 27.13M26 19C26 21.2091 24.2091 23 22 23C19.7909 23 18 21.2091 18 19C18 16.7909 19.7909 15 22 15C24.2091 15 26 16.7909 26 19Z" stroke="#175779" stroke-width="2" stroke-linecap="round" stroke-linejoin="round"/>
</svg>
