<svg width="50" height="48" viewBox="0 0 50 48" fill="none" xmlns="http://www.w3.org/2000/svg">
<rect width="50" height="48" rx="24" fill="#EEDAC1"/>
<path d="M29 25L34.223 28.482C34.2983 28.5321 34.3858 28.5608 34.4761 28.5652C34.5664 28.5695 34.6563 28.5492 34.736 28.5065C34.8157 28.4639 34.8824 28.4003 34.9289 28.3228C34.9754 28.2452 35 28.1564 35 28.066V19.87C35 19.782 34.9768 19.6956 34.9328 19.6194C34.8887 19.5433 34.8253 19.4801 34.7491 19.4363C34.6728 19.3925 34.5863 19.3696 34.4983 19.3699C34.4103 19.3702 34.324 19.3937 34.248 19.438L29 22.5M17 18H27C28.1046 18 29 18.8954 29 20V28C29 29.1046 28.1046 30 27 30H17C15.8954 30 15 29.1046 15 28V20C15 18.8954 15.8954 18 17 18Z" stroke="#175779" stroke-width="2" stroke-linecap="round" stroke-linejoin="round"/>
</svg>
