<svg width="40" height="40" viewBox="0 0 40 40" fill="none" xmlns="http://www.w3.org/2000/svg">
<g clip-path="url(#clip0_38_23)">
<path d="M25.3125 22.7344C26.6094 24.086 27.8984 25.4141 29.1719 26.7657C29.4922 27.1016 29.7656 27.3751 30.3125 27.2891C30.8047 27.211 31.2344 27.4923 31.5859 27.8594C33.8906 30.2579 36.2031 32.6485 38.4922 35.0548C39.2891 35.8985 39.2578 36.9141 38.4375 37.7344C37.8594 38.3204 37.2734 38.8907 36.6719 39.4454C35.8672 40.1876 34.8203 40.1876 34.0547 39.3985C31.7266 37.0001 29.4219 34.586 27.1094 32.1798C26.6797 31.7344 26.5156 31.2032 26.6016 30.5782C26.625 30.4298 26.5859 30.2266 26.4922 30.1251C25.0781 28.6485 23.6641 27.1876 22.2344 25.7032C18.5469 28.1173 14.5938 28.7735 10.375 27.4688C7.20313 26.4844 4.72656 24.5313 2.97656 21.7032C-0.562499 15.9923 0.593751 8.586 5.64844 4.25007C10.7344 -0.109309 18.2109 -0.117121 23.2422 4.17975C28.4531 8.62507 29.7891 16.6329 25.3125 22.7344ZM14.4688 26.7735C21.2109 26.7579 26.6875 21.2891 26.6953 14.5704C26.6953 7.81257 21.2266 2.30475 14.5391 2.30475C7.75 2.30475 2.25 7.79694 2.27344 14.5469C2.28906 21.3048 7.76562 26.7891 14.4688 26.7735ZM35.3594 38.6954C35.5156 38.5938 35.6797 38.5313 35.7969 38.4219C36.375 37.8751 36.9375 37.3204 37.5078 36.7735C37.7891 36.5001 37.7812 36.2423 37.5156 35.9688C35.2344 33.5938 32.9453 31.2188 30.6641 28.8438C30.3984 28.5626 30.1562 28.5391 29.8672 28.8204C29.2969 29.3829 28.7031 29.9376 28.1328 30.5001C27.8203 30.8048 27.8203 31.0001 28.1406 31.3282C30.4141 33.6954 32.6875 36.0626 34.9609 38.4219C35.0625 38.5235 35.2031 38.586 35.3594 38.6954ZM23.3672 24.9376C24.7031 26.3282 26.0859 27.7579 27.4844 29.2188C27.8516 28.8204 28.1875 28.4454 28.5469 28.0548C27.2031 26.6563 25.8281 25.2266 24.4141 23.7579C24.0547 24.1563 23.7266 24.5313 23.3672 24.9376Z" fill="#175779"/>
<path d="M31.8828 17.6096C30.7344 16.0315 30.7891 14.4065 32.0078 13.3049C33.1328 12.2815 34.8281 12.258 35.9531 13.258C37.2188 14.3752 37.2969 15.9768 36.1328 17.6174C36.2734 17.7034 36.4219 17.7893 36.5547 17.883C37.8516 18.7737 38.5625 20.0002 38.6484 21.5784C38.6797 22.133 38.4453 22.4377 38.0234 22.4534C37.6094 22.469 37.3438 22.1643 37.3125 21.6252C37.1953 19.7502 35.7031 18.3909 33.8438 18.4612C32.3125 18.5237 30.9766 19.719 30.75 21.2346C30.7266 21.4143 30.7109 21.6018 30.6875 21.7815C30.6406 22.1955 30.375 22.4534 30.0078 22.4455C29.625 22.4299 29.3438 22.1252 29.3594 21.6955C29.4141 20.2268 30 19.0159 31.1563 18.1018C31.3828 17.9299 31.625 17.7893 31.8828 17.6096ZM35.625 15.5002C35.6328 14.6018 34.9219 13.8752 34.0313 13.8674C33.125 13.8596 32.3828 14.594 32.3828 15.5002C32.3906 16.3909 33.1172 17.1096 34.0078 17.1096C34.9141 17.1096 35.6172 16.4065 35.625 15.5002Z" fill="#175779"/>
<path d="M20.9844 34.4921C22.1641 35.1718 22.9453 36.1405 23.25 37.453C23.3125 37.7264 23.3516 38.0077 23.3672 38.2889C23.3984 38.7968 23.1563 39.1093 22.7422 39.1249C22.3125 39.1483 22.0625 38.8749 22.0313 38.3593C21.9453 36.9686 21.0859 35.8124 19.8047 35.4608C17.6016 34.8671 15.8594 36.4139 15.7656 38.3436C15.75 38.7264 15.6328 39.0155 15.2422 39.1093C14.7578 39.2186 14.3906 38.8671 14.4297 38.3046C14.5234 36.7577 15.2031 35.5468 16.4922 34.6874C16.5938 34.6171 16.7031 34.5546 16.8047 34.4843C15.7422 32.6952 15.836 31.2968 17.0781 30.2577C18.1563 29.3514 19.75 29.3749 20.8125 30.3202C21.9688 31.3671 22.0391 32.8358 20.9844 34.4921ZM18.8906 33.9608C19.75 33.9608 20.4063 33.3202 20.4141 32.4764C20.4219 31.6405 19.75 30.9608 18.9141 30.9452C18.0625 30.9374 17.3594 31.6249 17.3672 32.4686C17.375 33.3046 18.0391 33.9608 18.8906 33.9608Z" fill="#175779"/>
<path d="M7 31.0155C8.125 31.7264 8.78125 32.7186 8.91406 34.0311C8.92188 34.117 8.9375 34.203 8.9375 34.2811C8.9375 34.7108 8.67969 35.0155 8.29688 35.0311C7.90625 35.0467 7.64062 34.7889 7.60156 34.3436C7.48438 33.0858 6.82031 32.242 5.73438 31.9452C4.21875 31.5389 2.69531 32.6249 2.59375 34.1874C2.58594 34.2733 2.59375 34.3592 2.57812 34.4452C2.50781 34.8202 2.21875 35.0545 1.86719 35.0311C1.51562 35.0077 1.25 34.742 1.25 34.3514C1.25781 33.117 1.76562 32.1092 2.71875 31.3358C2.85937 31.2186 3.01562 31.117 3.16406 31.0155C2.34375 29.4295 2.48438 28.2186 3.57812 27.3749C4.53906 26.6405 5.88281 26.6952 6.77344 27.5155C7.75 28.4061 7.84375 29.6795 7 31.0155ZM5.10938 30.4999C5.75781 30.492 6.26562 29.9764 6.25 29.3358C6.23438 28.7108 5.73438 28.2186 5.10156 28.2186C4.44531 28.2186 3.94531 28.7186 3.94531 29.367C3.94531 30.0155 4.44531 30.4999 5.10938 30.4999Z" fill="#175779"/>
<path d="M29.5391 4.10941C28.7187 2.64066 28.8437 1.40628 29.875 0.562534C30.8203 -0.210904 32.1953 -0.179654 33.1016 0.625034C33.8516 1.29691 34.3594 2.6641 33.3672 4.07035C33.4375 4.13285 33.5 4.20316 33.5781 4.25003C34.5391 4.92191 35.0781 5.8516 35.2344 7.00785C35.25 7.14847 35.2578 7.2891 35.25 7.42972C35.2266 7.80472 34.9531 8.07816 34.6016 8.08597C34.25 8.09378 33.9609 7.84378 33.9141 7.46878C33.8906 7.30472 33.8984 7.12503 33.8672 6.96097C33.6172 5.7266 32.5859 4.9141 31.3437 4.96097C30.1328 5.00785 29.1641 5.92972 29.0078 7.18753C29 7.25785 29 7.32816 28.9922 7.39847C28.9531 7.83597 28.6797 8.10941 28.2969 8.08597C27.9141 8.06253 27.6406 7.75785 27.6641 7.32816C27.7187 6.1641 28.1797 5.19535 29.0859 4.45316C29.2187 4.33597 29.375 4.23441 29.5391 4.10941ZM31.4453 3.59378C32.0937 3.59378 32.5703 3.11722 32.5703 2.4766C32.5703 1.83597 32.0859 1.3516 31.4453 1.34378C30.8047 1.34378 30.3203 1.82816 30.3203 2.46878C30.3281 3.11722 30.8047 3.59378 31.4453 3.59378Z" fill="#175779"/>
<path d="M14.4375 25.7812C8.28124 25.7969 3.22655 20.7656 3.20311 14.5938C3.17968 8.3125 8.22655 3.25781 14.5156 3.25781C20.6484 3.25781 25.6641 8.32031 25.6797 14.5234C25.6875 20.75 20.6875 25.7578 14.4375 25.7812ZM14.4219 24.4297C19.9453 24.4141 24.3437 20.0156 24.3359 14.5C24.3281 9.03906 19.8984 4.59375 14.4687 4.60156C8.96093 4.60156 4.53905 9.05469 4.54686 14.5859C4.56249 20.0078 9.0078 24.4453 14.4219 24.4297Z" fill="#175779"/>
<path d="M16.7656 14.3672C17.8281 14.8906 18.6719 15.6328 19.2656 16.6328C19.75 17.4531 20 18.3437 20.0469 19.2968C20.0781 19.8672 19.8125 20.1562 19.25 20.1562C16.0547 20.164 12.8594 20.164 9.66407 20.1562C9.10157 20.1562 8.85157 19.9062 8.87501 19.3437C8.96095 17.2187 9.95313 15.6406 11.7734 14.5703C11.8828 14.5078 11.9922 14.4453 12.1016 14.3828C10.5625 12.4218 10.5781 10.4531 12.125 9.08591C13.5313 7.84372 15.6484 7.92184 16.9609 9.26559C18.1484 10.4765 18.4688 12.6797 16.7656 14.3672ZM10.3047 18.7812C13.0938 18.7812 15.8516 18.7812 18.6172 18.7812C18.3906 16.7422 16.4766 15.1875 14.2656 15.2265C12.3281 15.2656 10.4297 16.9531 10.3047 18.7812ZM16.6094 11.7343C16.6172 10.5312 15.6719 9.55465 14.4844 9.53903C13.2813 9.5234 12.2813 10.5078 12.2813 11.7109C12.2813 12.8984 13.2578 13.875 14.4375 13.875C15.6328 13.8828 16.6016 12.9218 16.6094 11.7343Z" fill="#175779"/>
</g>
<defs>
<clipPath id="clip0_38_23">
<rect width="40" height="40" fill="white"/>
</clipPath>
</defs>
</svg>
